<svg xmlns="http://www.w3.org/2000/svg" xmlns:xlink="http://www.w3.org/1999/xlink" width="94" height="94" version="1.1" viewBox="0 0 94 94"><title>94D55B56-0ADD-4D59-B9EF-27EC8B41D2E0</title><desc>Created with sketchtool.</desc><defs><linearGradient id="linearGradient-1" x1="-7.849%" x2="89.422%" y1="13.011%" y2="91.188%"><stop offset="0%" stop-color="#FF5858"/><stop offset="100%" stop-color="#F09819"/></linearGradient></defs><g id="Page-1" fill="none" fill-rule="evenodd" stroke="none" stroke-width="1"><g id="devops-security-checklist" transform="translate(-239.000000, -97.000000)"><g id="DOSC-logo" transform="translate(240.000000, 98.000000)"><g id="Group-988"><polygon id="Path-2" fill="url(#linearGradient-1)" points="13.01 23.762 30.087 24.591 41.985 11.106 47.052 13.223 50.875 11.176 61.951 24.281 79.87 24.468 80.233 27.916 83.203 30.445 72.65 46.147 83.488 62.218 80.521 64.113 79.231 68.144 62.754 67.7 51.685 79.337 46.759 79.5 42.619 80.7 30.212 68.083 13.156 68.031 11.763 64.487 9.524 62.266 20.973 45.852 9.877 29.768 12.441 26.735"/><polyline id="Stroke-2574" stroke="#000" stroke-linejoin="round" stroke-width="3" points="8.845 62.014 20.526 46.142 8.444 29.425"/><polyline id="Stroke-2575" stroke="#000" stroke-linejoin="round" stroke-width="3" points="41.723 80.506 30.274 67.626 12.495 67.626"/><polyline id="Stroke-2576" stroke="#000" stroke-linejoin="round" stroke-width="3" points="79.745 67.624 61.726 67.624 50.014 80.803"/><polyline id="Stroke-2577" stroke="#000" stroke-linejoin="round" stroke-width="3" points="83.416 29.771 71.554 46.063 83.274 62.041"/><polyline id="Stroke-2578" stroke="#000" stroke-linejoin="round" stroke-width="3" points="50.277 11.494 61.726 24.374 79.501 24.374"/><polyline id="Stroke-2579" stroke="#000" stroke-linejoin="round" stroke-width="3" points="12.501 24.376 30.275 24.376 41.992 11.189"/><path id="Stroke-2580" stroke="#000" stroke-linejoin="round" stroke-width="3" d="M12.5811966,24.3760684 C12.5811966,27.631453 9.9391453,30.2735043 6.68376068,30.2735043 C3.42837607,30.2735043 0.786324786,27.631453 0.786324786,24.3760684 C0.786324786,21.1167521 3.42837607,18.4786325 6.68376068,18.4786325 C9.9391453,18.4786325 12.5811966,21.1167521 12.5811966,24.3760684 L12.5811966,24.3760684 Z"/><path id="Stroke-2581" stroke="#000" stroke-linejoin="round" stroke-width="3" d="M51.8974359,6.68376068 C51.8974359,9.9391453 49.2553846,12.5811966 46,12.5811966 C42.7446154,12.5811966 40.1025641,9.9391453 40.1025641,6.68376068 C40.1025641,3.42444444 42.7446154,0.786324786 46,0.786324786 C49.2553846,0.786324786 51.8974359,3.42444444 51.8974359,6.68376068 L51.8974359,6.68376068 Z"/><path id="Stroke-2582" stroke="#000" stroke-linejoin="round" stroke-width="3" d="M51.8974359,85.3162393 C51.8974359,88.5716239 49.2553846,91.2136752 46,91.2136752 C42.7446154,91.2136752 40.1025641,88.5716239 40.1025641,85.3162393 C40.1025641,82.0569231 42.7446154,79.4188034 46,79.4188034 C49.2553846,79.4188034 51.8974359,82.0569231 51.8974359,85.3162393 L51.8974359,85.3162393 Z"/><path id="Stroke-2583" stroke="#000" stroke-linejoin="round" stroke-width="3" d="M91.2136752,24.3760684 C91.2136752,27.631453 88.5716239,30.2735043 85.3162393,30.2735043 C82.0608547,30.2735043 79.4188034,27.631453 79.4188034,24.3760684 C79.4188034,21.1167521 82.0608547,18.4786325 85.3162393,18.4786325 C88.5716239,18.4786325 91.2136752,21.1167521 91.2136752,24.3760684 L91.2136752,24.3760684 Z"/><path id="Stroke-2584" stroke="#000" stroke-linejoin="round" stroke-width="3" d="M12.5811966,67.6239316 C12.5811966,70.8793162 9.9391453,73.5213675 6.68376068,73.5213675 C3.42837607,73.5213675 0.786324786,70.8793162 0.786324786,67.6239316 C0.786324786,64.3646154 3.42837607,61.7264957 6.68376068,61.7264957 C9.9391453,61.7264957 12.5811966,64.3646154 12.5811966,67.6239316 L12.5811966,67.6239316 Z"/><path id="Stroke-2585" stroke="#000" stroke-linejoin="round" stroke-width="3" d="M91.2136752,67.6239316 C91.2136752,70.8793162 88.5716239,73.5213675 85.3162393,73.5213675 C82.0608547,73.5213675 79.4188034,70.8793162 79.4188034,67.6239316 C79.4188034,64.3646154 82.0608547,61.7264957 85.3162393,61.7264957 C88.5716239,61.7264957 91.2136752,64.3646154 91.2136752,67.6239316 L91.2136752,67.6239316 Z"/><path id="Stroke-2586" stroke="#000" stroke-linejoin="round" stroke-width="3" d="M63.6923077,46 C63.6923077,55.7700855 55.7700855,63.6923077 46,63.6923077 C36.2299145,63.6923077 28.3076923,55.7700855 28.3076923,46 C28.3076923,36.2299145 36.2299145,28.3076923 46,28.3076923 C55.7700855,28.3076923 63.6923077,36.2299145 63.6923077,46 L63.6923077,46 Z"/><polyline id="Stroke-5984" stroke="#000" stroke-linejoin="round" stroke-width="3" points="8.845 62.014 20.526 46.142 8.444 29.425"/><polyline id="Stroke-5985" stroke="#000" stroke-linejoin="round" stroke-width="3" points="41.723 80.506 30.274 67.626 12.495 67.626"/><polyline id="Stroke-5986" stroke="#000" stroke-linejoin="round" stroke-width="3" points="79.745 67.624 61.726 67.624 50.014 80.803"/><polyline id="Stroke-5987" stroke="#000" stroke-linejoin="round" stroke-width="3" points="83.416 29.771 71.554 46.063 83.274 62.041"/><polyline id="Stroke-5988" stroke="#000" stroke-linejoin="round" stroke-width="3" points="50.277 11.494 61.726 24.374 79.501 24.374"/><polyline id="Stroke-5989" stroke="#000" stroke-linejoin="round" stroke-width="3" points="12.501 24.376 30.275 24.376 41.992 11.189"/><path id="Stroke-5990" stroke="#000" stroke-linejoin="round" stroke-width="3" d="M12.5811966,24.3760684 C12.5811966,27.631453 9.9391453,30.2735043 6.68376068,30.2735043 C3.42837607,30.2735043 0.786324786,27.631453 0.786324786,24.3760684 C0.786324786,21.1167521 3.42837607,18.4786325 6.68376068,18.4786325 C9.9391453,18.4786325 12.5811966,21.1167521 12.5811966,24.3760684 L12.5811966,24.3760684 Z"/><path id="Stroke-5991" stroke="#000" stroke-linejoin="round" stroke-width="3" d="M51.8974359,6.68376068 C51.8974359,9.9391453 49.2553846,12.5811966 46,12.5811966 C42.7446154,12.5811966 40.1025641,9.9391453 40.1025641,6.68376068 C40.1025641,3.42444444 42.7446154,0.786324786 46,0.786324786 C49.2553846,0.786324786 51.8974359,3.42444444 51.8974359,6.68376068 L51.8974359,6.68376068 Z"/><path id="Stroke-5992" stroke="#000" stroke-linejoin="round" stroke-width="3" d="M51.8974359,85.3162393 C51.8974359,88.5716239 49.2553846,91.2136752 46,91.2136752 C42.7446154,91.2136752 40.1025641,88.5716239 40.1025641,85.3162393 C40.1025641,82.0569231 42.7446154,79.4188034 46,79.4188034 C49.2553846,79.4188034 51.8974359,82.0569231 51.8974359,85.3162393 L51.8974359,85.3162393 Z"/><path id="Stroke-5993" stroke="#000" stroke-linejoin="round" stroke-width="3" d="M91.2136752,24.3760684 C91.2136752,27.631453 88.5716239,30.2735043 85.3162393,30.2735043 C82.0608547,30.2735043 79.4188034,27.631453 79.4188034,24.3760684 C79.4188034,21.1167521 82.0608547,18.4786325 85.3162393,18.4786325 C88.5716239,18.4786325 91.2136752,21.1167521 91.2136752,24.3760684 L91.2136752,24.3760684 Z"/><path id="Stroke-5994" stroke="#000" stroke-linejoin="round" stroke-width="3" d="M12.5811966,67.6239316 C12.5811966,70.8793162 9.9391453,73.5213675 6.68376068,73.5213675 C3.42837607,73.5213675 0.786324786,70.8793162 0.786324786,67.6239316 C0.786324786,64.3646154 3.42837607,61.7264957 6.68376068,61.7264957 C9.9391453,61.7264957 12.5811966,64.3646154 12.5811966,67.6239316 L12.5811966,67.6239316 Z"/><path id="Stroke-5995" stroke="#000" stroke-linejoin="round" stroke-width="3" d="M91.2136752,67.6239316 C91.2136752,70.8793162 88.5716239,73.5213675 85.3162393,73.5213675 C82.0608547,73.5213675 79.4188034,70.8793162 79.4188034,67.6239316 C79.4188034,64.3646154 82.0608547,61.7264957 85.3162393,61.7264957 C88.5716239,61.7264957 91.2136752,64.3646154 91.2136752,67.6239316 L91.2136752,67.6239316 Z"/><path id="Stroke-5996" fill="#FFF" stroke="#000" stroke-linejoin="round" stroke-width="3" d="M63.6923077,46 C63.6923077,55.7700855 55.7700855,63.6923077 46,63.6923077 C36.2299145,63.6923077 28.3076923,55.7700855 28.3076923,46 C28.3076923,36.2299145 36.2299145,28.3076923 46,28.3076923 C55.7700855,28.3076923 63.6923077,36.2299145 63.6923077,46 L63.6923077,46 Z"/></g><polygon id="Stroke-3583" fill="#000" points="41.693 52.522 43.428 54.256 45.163 52.522 53.736 43.951 55.436 42.251 51.965 38.923 50.266 40.622 43.454 47.484 41.734 45.765 40.035 44.066 36.564 47.394 38.264 49.093"/></g></g></g></svg>